<?xml version="1.0" encoding="UTF-8" standalone="no"?>
<!DOCTYPE svg PUBLIC "-//W3C//DTD SVG 1.1//EN"
 "http://www.w3.org/Graphics/SVG/1.1/DTD/svg11.dtd">
<!-- Generated by graphviz version 9.0.0 (20230911.1827)
 -->
<!-- Pages: 1 -->
<svg width="258pt" height="304pt"
 viewBox="0.00 0.00 257.56 303.62" xmlns="http://www.w3.org/2000/svg" xmlns:xlink="http://www.w3.org/1999/xlink">
<g id="graph0" class="graph" transform="scale(1 1) rotate(0) translate(4 299.62)">
<polygon fill="white" stroke="none" points="-4,4 -4,-299.62 253.56,-299.62 253.56,4 -4,4"/>
<!-- jqt -->
<g id="node1" class="node">
<title>jqt</title>
<ellipse fill="none" stroke="black" cx="95.32" cy="-217.73" rx="27" ry="18"/>
<text text-anchor="middle" x="95.32" y="-212.31" font-family="Times New Roman,serif" font-size="14.00">jqt</text>
</g>
<!-- rhn -->
<g id="node2" class="node">
<title>rhn</title>
<ellipse fill="none" stroke="black" cx="27" cy="-233.94" rx="27" ry="18"/>
<text text-anchor="middle" x="27" y="-228.52" font-family="Times New Roman,serif" font-size="14.00">rhn</text>
</g>
<!-- jqt&#45;&#45;rhn -->
<g id="edge1" class="edge">
<title>jqt&#45;&#45;rhn</title>
<path fill="none" stroke="black" d="M69.49,-223.86C64.05,-225.15 58.31,-226.51 52.87,-227.81"/>
</g>
<!-- xhk -->
<g id="node3" class="node">
<title>xhk</title>
<ellipse fill="none" stroke="black" cx="66.78" cy="-270.09" rx="27" ry="18"/>
<text text-anchor="middle" x="66.78" y="-264.66" font-family="Times New Roman,serif" font-size="14.00">xhk</text>
</g>
<!-- jqt&#45;&#45;xhk -->
<g id="edge2" class="edge">
<title>jqt&#45;&#45;xhk</title>
<path fill="none" stroke="black" d="M85.98,-234.87C82.85,-240.6 79.37,-246.98 76.24,-252.73"/>
</g>
<!-- nvd -->
<g id="node4" class="node">
<title>nvd</title>
<ellipse fill="none" stroke="black" cx="136.32" cy="-145.88" rx="27" ry="18"/>
<text text-anchor="middle" x="136.32" y="-140.45" font-family="Times New Roman,serif" font-size="14.00">nvd</text>
</g>
<!-- jqt&#45;&#45;nvd -->
<g id="edge3" class="edge">
<title>jqt&#45;&#45;nvd</title>
<path fill="none" stroke="black" d="M105.04,-200.7C111.58,-189.25 120.16,-174.21 126.68,-162.78"/>
</g>
<!-- ntq -->
<g id="node14" class="node">
<title>ntq</title>
<ellipse fill="none" stroke="black" cx="120.89" cy="-277.62" rx="27" ry="18"/>
<text text-anchor="middle" x="120.89" y="-272.2" font-family="Times New Roman,serif" font-size="14.00">ntq</text>
</g>
<!-- jqt&#45;&#45;ntq -->
<g id="edge26" class="edge">
<title>jqt&#45;&#45;ntq</title>
<path fill="none" stroke="black" d="M102.86,-235.38C106.16,-243.11 110.02,-252.16 113.32,-259.9"/>
</g>
<!-- rhn&#45;&#45;xhk -->
<g id="edge4" class="edge">
<title>rhn&#45;&#45;xhk</title>
<path fill="none" stroke="black" d="M43.18,-248.64C45.59,-250.83 48.07,-253.09 50.48,-255.28"/>
</g>
<!-- pzl -->
<g id="node10" class="node">
<title>pzl</title>
<ellipse fill="none" stroke="black" cx="66.3" cy="-108.88" rx="27" ry="18"/>
<text text-anchor="middle" x="66.3" y="-103.45" font-family="Times New Roman,serif" font-size="14.00">pzl</text>
</g>
<!-- nvd&#45;&#45;pzl -->
<g id="edge17" class="edge">
<title>nvd&#45;&#45;pzl</title>
<path fill="none" stroke="black" d="M114.93,-134.57C106.25,-129.98 96.23,-124.69 87.56,-120.11"/>
</g>
<!-- qnr -->
<g id="node12" class="node">
<title>qnr</title>
<ellipse fill="none" stroke="black" cx="222.56" cy="-105.67" rx="27" ry="18"/>
<text text-anchor="middle" x="222.56" y="-100.24" font-family="Times New Roman,serif" font-size="14.00">qnr</text>
</g>
<!-- nvd&#45;&#45;qnr -->
<g id="edge23" class="edge">
<title>nvd&#45;&#45;qnr</title>
<path fill="none" stroke="black" d="M158.53,-135.52C171.31,-129.56 187.32,-122.1 200.13,-116.13"/>
</g>
<!-- bvb -->
<g id="node5" class="node">
<title>bvb</title>
<ellipse fill="none" stroke="black" cx="129.68" cy="-224.41" rx="27" ry="18"/>
<text text-anchor="middle" x="129.68" y="-218.99" font-family="Times New Roman,serif" font-size="14.00">bvb</text>
</g>
<!-- bvb&#45;&#45;rhn -->
<g id="edge5" class="edge">
<title>bvb&#45;&#45;rhn</title>
<path fill="none" stroke="black" d="M102.7,-226.92C87.73,-228.31 69.15,-230.03 54.15,-231.42"/>
</g>
<!-- bvb&#45;&#45;xhk -->
<g id="edge24" class="edge">
<title>bvb&#45;&#45;xhk</title>
<path fill="none" stroke="black" d="M111.14,-237.87C103.03,-243.76 93.52,-250.67 85.39,-256.57"/>
</g>
<!-- hfx -->
<g id="node6" class="node">
<title>hfx</title>
<ellipse fill="none" stroke="black" cx="56.7" cy="-193.12" rx="27" ry="18"/>
<text text-anchor="middle" x="56.7" y="-187.69" font-family="Times New Roman,serif" font-size="14.00">hfx</text>
</g>
<!-- bvb&#45;&#45;hfx -->
<g id="edge25" class="edge">
<title>bvb&#45;&#45;hfx</title>
<path fill="none" stroke="black" d="M106.59,-214.51C97.99,-210.82 88.23,-206.64 79.64,-202.95"/>
</g>
<!-- cmg -->
<g id="node13" class="node">
<title>cmg</title>
<ellipse fill="none" stroke="black" cx="189.46" cy="-161.42" rx="27" ry="18"/>
<text text-anchor="middle" x="189.46" y="-156" font-family="Times New Roman,serif" font-size="14.00">cmg</text>
</g>
<!-- bvb&#45;&#45;cmg -->
<g id="edge22" class="edge">
<title>bvb&#45;&#45;cmg</title>
<path fill="none" stroke="black" d="M144.45,-208.84C153.72,-199.08 165.62,-186.54 174.86,-176.81"/>
</g>
<!-- bvb&#45;&#45;ntq -->
<g id="edge28" class="edge">
<title>bvb&#45;&#45;ntq</title>
<path fill="none" stroke="black" d="M126.65,-242.72C125.76,-248.14 124.78,-254.05 123.89,-259.46"/>
</g>
<!-- hfx&#45;&#45;rhn -->
<g id="edge6" class="edge">
<title>hfx&#45;&#45;rhn</title>
<path fill="none" stroke="black" d="M44.62,-209.72C42.76,-212.28 40.84,-214.93 38.97,-217.48"/>
</g>
<!-- hfx&#45;&#45;xhk -->
<g id="edge7" class="edge">
<title>hfx&#45;&#45;xhk</title>
<path fill="none" stroke="black" d="M59.09,-211.36C60.69,-223.54 62.77,-239.5 64.37,-251.71"/>
</g>
<!-- hfx&#45;&#45;pzl -->
<g id="edge16" class="edge">
<title>hfx&#45;&#45;pzl</title>
<path fill="none" stroke="black" d="M58.79,-174.84C60.4,-160.71 62.61,-141.24 64.22,-127.12"/>
</g>
<!-- hfx&#45;&#45;ntq -->
<g id="edge27" class="edge">
<title>hfx&#45;&#45;ntq</title>
<path fill="none" stroke="black" d="M69.08,-209.41C80.45,-224.37 97.2,-246.43 108.55,-261.38"/>
</g>
<!-- lhk -->
<g id="node7" class="node">
<title>lhk</title>
<ellipse fill="none" stroke="black" cx="178.66" cy="-96.08" rx="27" ry="18"/>
<text text-anchor="middle" x="178.66" y="-90.66" font-family="Times New Roman,serif" font-size="14.00">lhk</text>
</g>
<!-- lhk&#45;&#45;nvd -->
<g id="edge8" class="edge">
<title>lhk&#45;&#45;nvd</title>
<path fill="none" stroke="black" d="M165.03,-112.11C160.2,-117.8 154.76,-124.19 149.93,-129.88"/>
</g>
<!-- lsr -->
<g id="node11" class="node">
<title>lsr</title>
<ellipse fill="none" stroke="black" cx="118.26" cy="-54.26" rx="27" ry="18"/>
<text text-anchor="middle" x="118.26" y="-48.84" font-family="Times New Roman,serif" font-size="14.00">lsr</text>
</g>
<!-- lhk&#45;&#45;lsr -->
<g id="edge18" class="edge">
<title>lhk&#45;&#45;lsr</title>
<path fill="none" stroke="black" d="M159.55,-82.85C152.36,-77.87 144.2,-72.22 137.04,-67.27"/>
</g>
<!-- frs -->
<g id="node8" class="node">
<title>frs</title>
<ellipse fill="none" stroke="black" cx="180.03" cy="-18" rx="27" ry="18"/>
<text text-anchor="middle" x="180.03" y="-12.57" font-family="Times New Roman,serif" font-size="14.00">frs</text>
</g>
<!-- frs&#45;&#45;lhk -->
<g id="edge13" class="edge">
<title>frs&#45;&#45;lhk</title>
<path fill="none" stroke="black" d="M179.71,-36.11C179.5,-48.63 179.2,-65.24 178.98,-77.8"/>
</g>
<!-- rsh -->
<g id="node9" class="node">
<title>rsh</title>
<ellipse fill="none" stroke="black" cx="93.67" cy="-26.44" rx="27" ry="18"/>
<text text-anchor="middle" x="93.67" y="-21.01" font-family="Times New Roman,serif" font-size="14.00">rsh</text>
</g>
<!-- frs&#45;&#45;rsh -->
<g id="edge9" class="edge">
<title>frs&#45;&#45;rsh</title>
<path fill="none" stroke="black" d="M153.18,-20.62C142.88,-21.63 131.13,-22.78 120.81,-23.79"/>
</g>
<!-- frs&#45;&#45;lsr -->
<g id="edge14" class="edge">
<title>frs&#45;&#45;lsr</title>
<path fill="none" stroke="black" d="M159.46,-30.08C152.87,-33.95 145.56,-38.24 138.95,-42.12"/>
</g>
<!-- frs&#45;&#45;qnr -->
<g id="edge12" class="edge">
<title>frs&#45;&#45;qnr</title>
<path fill="none" stroke="black" d="M188.43,-35.32C195.84,-50.59 206.59,-72.73 214.03,-88.08"/>
</g>
<!-- rzs -->
<g id="node15" class="node">
<title>rzs</title>
<ellipse fill="none" stroke="black" cx="178.07" cy="-62.74" rx="27" ry="18"/>
<text text-anchor="middle" x="178.07" y="-57.31" font-family="Times New Roman,serif" font-size="14.00">rzs</text>
</g>
<!-- rsh&#45;&#45;rzs -->
<g id="edge33" class="edge">
<title>rsh&#45;&#45;rzs</title>
<path fill="none" stroke="black" d="M116.74,-36.36C128.65,-41.48 143.13,-47.71 155.04,-52.83"/>
</g>
<!-- pzl&#45;&#45;rsh -->
<g id="edge10" class="edge">
<title>pzl&#45;&#45;rsh</title>
<path fill="none" stroke="black" d="M72.24,-90.99C76.83,-77.16 83.16,-58.11 87.75,-44.29"/>
</g>
<!-- lsr&#45;&#45;rsh -->
<g id="edge11" class="edge">
<title>lsr&#45;&#45;rsh</title>
<path fill="none" stroke="black" d="M104.25,-38.4C104.16,-38.3 104.07,-38.2 103.99,-38.11"/>
</g>
<!-- lsr&#45;&#45;pzl -->
<g id="edge15" class="edge">
<title>lsr&#45;&#45;pzl</title>
<path fill="none" stroke="black" d="M103.51,-69.77C96.43,-77.21 87.97,-86.1 80.91,-93.52"/>
</g>
<!-- lsr&#45;&#45;rzs -->
<g id="edge32" class="edge">
<title>lsr&#45;&#45;rzs</title>
<path fill="none" stroke="black" d="M145.02,-58.05C147.14,-58.35 149.27,-58.66 151.39,-58.96"/>
</g>
<!-- qnr&#45;&#45;rzs -->
<g id="edge30" class="edge">
<title>qnr&#45;&#45;rzs</title>
<path fill="none" stroke="black" d="M207,-90.65C202.69,-86.49 198.02,-81.98 193.7,-77.82"/>
</g>
<!-- cmg&#45;&#45;nvd -->
<g id="edge20" class="edge">
<title>cmg&#45;&#45;nvd</title>
<path fill="none" stroke="black" d="M164.45,-154.1C163.48,-153.82 162.51,-153.54 161.54,-153.25"/>
</g>
<!-- cmg&#45;&#45;lhk -->
<g id="edge21" class="edge">
<title>cmg&#45;&#45;lhk</title>
<path fill="none" stroke="black" d="M186.46,-143.22C184.96,-134.16 183.15,-123.23 181.66,-114.18"/>
</g>
<!-- cmg&#45;&#45;qnr -->
<g id="edge19" class="edge">
<title>cmg&#45;&#45;qnr</title>
<path fill="none" stroke="black" d="M199.58,-144.39C203.68,-137.47 208.42,-129.5 212.52,-122.59"/>
</g>
<!-- cmg&#45;&#45;rzs -->
<g id="edge31" class="edge">
<title>cmg&#45;&#45;rzs</title>
<path fill="none" stroke="black" d="M187.38,-143.32C185.33,-125.63 182.24,-98.83 180.19,-81.06"/>
</g>
<!-- ntq&#45;&#45;xhk -->
<g id="edge29" class="edge">
<title>ntq&#45;&#45;xhk</title>
<path fill="none" stroke="black" d="M94.15,-273.9C93.94,-273.87 93.72,-273.84 93.51,-273.81"/>
</g>
</g>
</svg>
